PathFileType	4	(X/Y/Z)	/Users/itak/Documents/Research/Walk-IL/dataset/trc/00136_00007.trc
DataRate	CameraRate	NumFrames	NumMarkers	Units	OrigDataRate	OrigDataStartFrame	OrigNumFrames
100.000000	100.000000	4	53	mm	100.000000	647	740
Frame#	Time	RPSI			LPSI			L3			STRN			T10			C7			CLAV			RBAK			LBAK			LSHO			LUPA			LAEL			LAOL			LWTS			LWPS			LFRA			LIFD			LHPS			LHTS			RSHO			RUPA			RAEL			RAOL			RWTS			RWPS			RFRA			RIFD			RHTS			RHPS			RBHD			LFHD			RFHD			LBHD			LHIP			RHIP			RASI			LASI			LKNE			LTHI			LANK			LTIP			LTOE			LMT1			LMT5			LHEE			RKNE			RTHI			RANK			RTIP			RTOE			RMT1			RMT5			RHEE			
		X1	Y1	Z1	X2	Y2	Z2	X3	Y3	Z3	X4	Y4	Z4	X5	Y5	Z5	X6	Y6	Z6	X7	Y7	Z7	X8	Y8	Z8	X9	Y9	Z9	X10	Y10	Z10	X11	Y11	Z11	X12	Y12	Z12	X13	Y13	Z13	X14	Y14	Z14	X15	Y15	Z15	X16	Y16	Z16	X17	Y17	Z17	X18	Y18	Z18	X19	Y19	Z19	X20	Y20	Z20	X21	Y21	Z21	X22	Y22	Z22	X23	Y23	Z23	X24	Y24	Z24	X25	Y25	Z25	X26	Y26	Z26	X27	Y27	Z27	X28	Y28	Z28	X29	Y29	Z29	X30	Y30	Z30	X31	Y31	Z31	X32	Y32	Z32	X33	Y33	Z33	X34	Y34	Z34	X35	Y35	Z35	X36	Y36	Z36	X37	Y37	Z37	X38	Y38	Z38	X39	Y39	Z39	X40	Y40	Z40	X41	Y41	Z41	X42	Y42	Z42	X43	Y43	Z43	X44	Y44	Z44	X45	Y45	Z45	X46	Y46	Z46	X47	Y47	Z47	X48	Y48	Z48	X49	Y49	Z49	X50	Y50	Z50	X51	Y51	Z51	X52	Y52	Z52	X53	Y53	Z53	

648	6.47	842.7520751953125	1118.735717773438	604.7599487304688	944.6781616210938	1128.484497070312	694.8543701171875	900.993408203125	1159.174560546875	646.33740234375	762.312744140625	1364.140014648438	811.451904296875	928.4202880859375	1309.934204101562	618.351318359375	926.5725708007812	1602.611206054688	651.125244140625	795.6555786132812	1497.357788085938	785.0313720703125	889.2539672851562	1418.291625976562	555.325439453125	1006.785278320312	1579.820678710938	712.3292236328125	998.4100952148438	1568.395751953125	821.6463012695312	1060.536865234375	1440.496215820312	866.6232299804688	1058.199096679688	1230.820434570312	931.9435424804688	1058.55712890625	1198.957641601562	849.29443359375	922.5054931640625	1020.208251953125	1049.838256835938	986.2699584960938	968.49072265625	1014.386535644531	1034.876098632812	1125.419799804688	976.9564208984375	858.1566772460938	843.4927978515625	1097.1337890625	955.0504760742188	908.881591796875	1057.930297851562	903.9627075195312	942.4801635742188	1092.731323242188	751.9920654296875	1587.200317382812	575.0819091796875	714.9530029296875	1514.588623046875	519.5591430664062	701.7559814453125	1219.864135742188	498.7922973632812	776.64111328125	1217.917724609375	560.002685546875	601.153564453125	986.3633422851562	622.39697265625	629.528076171875	964.2767944335938	547.123779296875	671.4347534179688	1147.623779296875	507.3593444824219	592.56640625	794.557373046875	662.9558715820312	573.1915893554688	879.7053833007812	645.34716796875	596.790283203125	867.4373779296875	576.8224487304688	826.8452758789062	1786.370971679688	651.56005859375	813.8822631835938	1822.947875976562	869.376220703125	714.43359375	1825.558227539062	783.57763671875	933.17724609375	1788.685180664062	732.9264526367188	967.5487670898438	1044.841796875	838.0006713867188	668.8822631835938	1023.193420410156	630.7376098632812	660.5966186523438	1102.999145507812	721.776123046875	865.1444091796875	1107.315063476562	892.786376953125	914.0786743164062	544.6593017578125	844.404541015625	954.0079956054688	687.455078125	843.0648193359375	933.0264282226562	33.29181671142578	771.2672729492188	974.5845947265625	289.6056213378906	795.0149536132812	727.9076538085938	36.73168563842773	898.587890625	763.2738647460938	47.34214782714844	816.6966552734375	866.1009521484375	34.33529281616211	880.4583129882812	937.3724365234375	37.22605895996094	678.8363647460938	640.4451904296875	538.4576416015625	741.0308837890625	644.7138061523438	817.1453857421875	685.0779418945312	806.7018432617188	82.62130737304688	533.8887939453125	671.6959228515625	412.4197082519531	682.5604858398438	691.2391357421875	64.44713592529297	734.9679565429688	762.5900268554688	54.28700256347656	719.2752075195312	703.02783203125	71.62087249755859	616.3986206054688	879.997802734375	87.87943267822266	524.1812133789062	
649	6.48	842.2288818359375	1118.857055664062	606.7017822265625	944.2327270507812	1128.382690429688	696.7674560546875	900.6167602539062	1159.045776367188	648.2429809570312	762.2354736328125	1364.133666992188	813.2166137695312	928.3507690429688	1309.7529296875	620.1552124023438	926.8330078125	1602.422119140625	652.9744262695312	795.7149658203125	1497.326782226562	786.8041381835938	889.4132690429688	1418.09716796875	557.1910400390625	1006.992370605469	1579.57373046875	714.2383422851562	998.5244140625	1568.150634765625	823.5557861328125	1060.246948242188	1440.064331054688	868.5375366210938	1056.921752929688	1230.263671875	933.7060546875	1057.511474609375	1198.523193359375	851.0054931640625	919.753173828125	1020.074829101562	1050.65625	983.4993896484375	968.1162109375	1015.509887695312	1032.909790039062	1124.89453125	978.482177734375	854.3716430664062	843.5416870117188	1097.342041015625	951.7803955078125	908.5662841796875	1058.76171875	900.5812377929688	942.328125	1093.294677734375	752.2826538085938	1587.106811523438	576.7830810546875	715.2379760742188	1514.501953125	521.2512817382812	702.121337890625	1219.805786132812	500.526611328125	776.93359375	1217.893432617188	561.803466796875	601.695556640625	985.9573974609375	623.7200317382812	630.1981201171875	964.0691528320312	548.4185791015625	671.862060546875	1147.558959960938	508.9909057617188	593.578857421875	794.072021484375	663.9451904296875	574.0474853515625	879.1892700195312	646.486572265625	597.6788330078125	867.1498413085938	577.9260864257812	827.2674560546875	1786.402587890625	653.4317626953125	813.9765625	1822.664672851562	871.40625	714.6417236328125	1825.426391601562	785.2694702148438	933.4423828125	1788.531494140625	735.0040893554688	966.9308471679688	1044.616333007812	839.8170776367188	668.7378540039062	1023.260925292969	632.475830078125	660.1654663085938	1103.145263671875	723.64501953125	864.6918334960938	1107.1572265625	894.6917114257812	913.6859130859375	544.35986328125	845.1383056640625	953.5075073242188	687.2756958007812	844.1549682617188	932.9773559570312	33.34804534912109	771.17724609375	974.44677734375	289.5438232421875	795.260498046875	727.9044189453125	36.78026580810547	898.5972900390625	763.3239135742188	47.45541381835938	816.7533569335938	866.099365234375	34.37685775756836	880.423095703125	937.2476196289062	37.15631103515625	678.718994140625	642.3212280273438	537.7564086914062	740.8043823242188	645.055419921875	816.8373413085938	686.2376098632812	804.65185546875	76.74494171142578	542.8194580078125	672.4732055664062	410.5086059570312	684.2974853515625	687.3305053710938	65.96101379394531	743.5706176757812	758.6906127929688	54.01177978515625	728.7304077148438	700.4257202148438	69.65684509277344	624.9647827148438	878.0979614257812	80.44864654541016	533.3535766601562	
650	6.49	841.6492309570312	1118.951904296875	608.577392578125	943.732177734375	1128.27490234375	698.619384765625	900.1732177734375	1158.899658203125	650.0952758789062	762.105224609375	1364.086669921875	814.9127807617188	928.22900390625	1309.527587890625	621.8731689453125	927.063232421875	1602.1806640625	654.73681640625	795.7489013671875	1497.2578125	788.5105590820312	889.52685546875	1417.85205078125	558.9822387695312	1007.174682617188	1579.267333984375	716.0548706054688	998.6251831054688	1567.843994140625	825.3816528320312	1059.964721679688	1439.554931640625	870.3189086914062	1055.705200195312	1229.609375	935.2554321289062	1056.500122070312	1198.02734375	852.4947509765625	917.1950073242188	1019.732971191406	1051.191772460938	980.9274291992188	967.5785522460938	1016.298095703125	1031.057495117188	1124.243408203125	979.7498168945312	850.87158203125	843.3309326171875	1097.196899414062	948.7453002929688	908.0517578125	1059.235961914062	897.4414672851562	941.9371337890625	1093.538452148438	752.5416259765625	1586.973754882812	578.4105224609375	715.486572265625	1514.375854492188	522.872802734375	702.4307250976562	1219.710693359375	502.1978454589844	777.1780395507812	1217.827514648438	563.544921875	602.1537475585938	985.5276489257812	625.0007934570312	630.8146362304688	963.8268432617188	549.6686401367188	672.2406005859375	1147.457763671875	510.5680847167969	594.5181884765625	793.56640625	664.9075317382812	574.8504028320312	878.6450805664062	647.5821533203125	598.5035400390625	866.8203125	578.9962768554688	827.680419921875	1786.401977539062	655.2052001953125	814.0704345703125	1822.34326171875	873.3006591796875	714.86181640625	1825.258666992188	786.8712768554688	933.713134765625	1788.345825195312	736.9641723632812	966.2701416015625	1044.387817382812	841.5769653320312	668.5486450195312	1023.268310546875	634.1635131835938	659.6900634765625	1103.234130859375	725.42919921875	864.1861572265625	1106.97412109375	896.5371704101562	913.3461303710938	544.0140380859375	845.8458251953125	953.0689086914062	687.0942993164062	845.1902465820312	932.942138671875	33.38134002685547	771.0991821289062	974.3607788085938	289.4461975097656	795.5052490234375	727.9271850585938	36.85684967041016	898.6016845703125	763.3887329101562	47.58494567871094	816.8080444335938	866.1109619140625	34.41776657104492	880.3811645507812	937.1566772460938	37.06824111938477	678.614501953125	644.3525390625	537.0081787109375	740.3772583007812	645.4402465820312	816.4652099609375	687.2859497070312	802.74755859375	70.98792266845703	551.6860961914062	673.3931274414062	408.5813598632812	685.8881225585938	683.8713989257812	67.26885986328125	751.962890625	755.1801147460938	53.68669891357422	737.9854736328125	698.077880859375	67.56141662597656	633.4215087890625	876.3081665039062	73.28041839599609	542.4844360351562	
651	6.5	841.02978515625	1119.011840820312	610.3869018554688	943.1821899414062	1128.157470703125	700.4149169921875	899.6646728515625	1158.732788085938	651.8955078125	761.9127197265625	1363.996459960938	816.5370483398438	928.0550537109375	1309.256958007812	623.5073852539062	927.2598876953125	1601.886596679688	656.4197998046875	795.7513427734375	1497.149658203125	790.1502685546875	889.5945434570312	1417.557250976562	560.6998291015625	1007.325317382812	1578.900756835938	717.7879028320312	998.7037353515625	1567.46826171875	827.1305541992188	1059.68408203125	1438.9599609375	871.9744262695312	1054.554443359375	1228.849487304688	936.5982055664062	1055.537109375	1197.461547851562	853.7689208984375	914.8367309570312	1019.175598144531	1051.458129882812	978.5625	966.869873046875	1016.766357421875	1029.332885742188	1123.4580078125	980.7669067382812	847.6544189453125	842.8453369140625	1096.703247070312	945.948486328125	907.3313598632812	1059.37109375	894.549072265625	941.3021240234375	1093.478637695312	752.7691040039062	1586.802734375	579.963623046875	715.7023315429688	1514.2109375	524.4193725585938	702.6878662109375	1219.575927734375	503.8071899414062	777.3756103515625	1217.71728515625	565.2315673828125	602.5254516601562	985.075439453125	626.2409057617188	631.3734130859375	963.5486450195312	550.8748779296875	672.573974609375	1147.315551757812	512.0919189453125	595.37646484375	793.0361938476562	665.8400268554688	575.58544921875	878.0775756835938	648.6323852539062	599.25732421875	866.445068359375	580.0382080078125	828.0845947265625	1786.363403320312	656.8836059570312	814.1508178710938	1821.98388671875	875.0496215820312	715.0909423828125	1825.058349609375	788.384765625	933.9857177734375	1788.121948242188	738.8126831054688	965.5842895507812	1044.159057617188	843.2874145507812	668.3193969726562	1023.209899902344	635.8011474609375	659.1724853515625	1103.259765625	727.1228637695312	863.6207275390625	1106.767822265625	898.3251953125	913.0541381835938	543.6473388671875	846.5512084960938	952.6856079101562	686.9126586914062	846.1885986328125	932.9202880859375	33.39327239990234	771.0342407226562	974.3176879882812	289.3140563964844	795.7604370117188	727.9755249023438	36.96124649047852	898.60400390625	763.4511108398438	47.70273971557617	816.8512573242188	866.1354370117188	34.45837783813477	880.3324584960938	937.0993041992188	36.96686935424805	678.5206909179688	646.510009765625	536.2178344726562	739.75439453125	645.8517456054688	816.0345458984375	688.1990356445312	800.9921264648438	65.36925506591797	560.498046875	674.4390258789062	406.6533813476562	687.3446044921875	680.8502197265625	68.29640197753906	760.1734619140625	752.078369140625	53.27467727661133	747.0767211914062	695.9676513671875	65.33880615234375	641.8023681640625	874.6376342773438	66.41529846191406	551.5661010742188	
